# xmcd
#
# Track frame offsets: 
#        150
#        39267
#        107177
#        150416
#        189365
#        239835
#        281640
#
# Disc length: 4210 seconds
#
# Revision: 2
# Processed by: cddbd v1.5.2PL0 Copyright (c) Steve Scherf et al.
# Submitted via: ExactAudioCopyFreeDBPlugin 1.0
#
DISCID=58107007
DTITLE=Various Artist - Bebop Story 090 - Bebop Live Concerts 01 - 1946
DYEAR=1946
DGENRE=Jazz
TTITLE0=Jazz At The Philharmonic - Crazy Rhythm
TTITLE1=Jazz At The Philharmonic - The Man I Love
TTITLE2=Jazz At The Philharmonic - Sweet Georgia Brown
TTITLE3=Jazz At The Philharmonic - Blues For Norman
TTITLE4=Jazz At The Philharmonic - Lady Be Good
TTITLE5=Jazz At The Philharmonic - I Can't Get Started
TTITLE6=Jazz At The Philharmonic - After You've Done
EXTD=
EXTT0=
EXTT1=
EXTT2=
EXTT3=
EXTT4=
EXTT5=
EXTT6=
PLAYORDER=
